# xmcd CD database file
#
# Track frame offsets:
#	150
#	10732
#	25462
#	42170
#	53757
#	68752
#	83005
#	97125
#	112957
#	131815
#	142905
#	161987
#	178132
#
# Disc length: 2505 seconds
#
# Revision: 1
# Processed by: cddbd v1.4PL0 Copyright (c) Steve Scherf et al.
# Submitted via: CDex 1.50beta9
#
DISCID=ae09c70d
DTITLE=Buddy and The Ghost Riders - For Fools Only
DYEAR=1992
DGENRE=Country
TTITLE0=Even Cowgirls Get The Blues
TTITLE1=True Love Never Dies
TTITLE2=A Rollin' Stone Like Me
TTITLE3=Prayers
TTITLE4=I Still Miss Someone
TTITLE5=Hollywood For Fools
TTITLE6=Louise
TTITLE7=Born To Die Alone
TTITLE8=Old Flames
TTITLE9=If You See Me Fallin'
TTITLE10=Ballad Of Billy Caine
TTITLE11=Lonesome On'Ry and Mean
TTITLE12=Roger's Hay Ride
EXTD=YEAR: 1992
EXTT0=
EXTT1=
EXTT2=
EXTT3=
EXTT4=
EXTT5=
EXTT6=
EXTT7=
EXTT8=
EXTT9=
EXTT10=
EXTT11=
EXTT12=
PLAYORDER=
